<svg xmlns="http://www.w3.org/2000/svg" width="1183.117" height="1029.219" viewBox="0 0 1183.117 1029.219">
  <g id="Group_626" data-name="Group 626" transform="translate(-74.184 -208.84)">
    <path id="Path_933" data-name="Path 933" d="M1220.07,913.17q-2.446-18.193-4.89-36.387a136.737,136.737,0,0,0-35.2-60.4l-27.7-21.4a136.238,136.238,0,0,0-69.084-18.687c-75.156,1.433-150.32,1.667-225.486,1.528-39.053-.073-78.108-.193-117.161-.111,15.312-11.594,30.794-23.175,45.238-35.868,15.22-13.375,26.693-29.167,38.757-45.7a64.547,64.547,0,0,0,6.044-9.723,365.413,365.413,0,0,0,15.482-36.56,44.863,44.863,0,0,0,1.928-6.7c2.909-15.2,6.642-31.1,5.364-46.7-1.049-12.812-2.067-32.757-7.734-47.045-4.119-10.385-9.367-23.922-14.34-33.884-.391-.783-.776-1.559-1.2-2.326a50.573,50.573,0,0,0-2.84-4.437c-6.514-9.315-15.035-19.9-22.2-28.763-.558-.691-1.1-1.388-1.683-2.059a50.064,50.064,0,0,0-4.7-4.755c-26.918-23.825-45.123-34.14-79.126-46a80.445,80.445,0,0,0-13.318-3.3c-13.57-2.258-27.534-4.052-41.217-5.533-2.7-.292-5.42-.481-8.139-.585a229.223,229.223,0,0,0-29.089,1.1c-21.539,1.919-43,5-64.352,8.385-19.724,3.127-39.227,7.5-58.592,12.345-36.353,9.1-72.49,20.746-109.433,27.523-61.119,5.434-123.056-.686-184.251-.731a103.081,103.081,0,0,0-52.736,11.789,102.588,102.588,0,0,0-44.05,28.3,102.6,102.6,0,0,0-28.3,44.05,103.08,103.08,0,0,0-11.788,52.736l4.889,36.387a136.736,136.736,0,0,0,35.2,60.4l27.7,21.4a136.246,136.246,0,0,0,69.084,18.687c39.765.029,79.553,2.321,119.327,2.657-4.437,10-8.8,20.09-12.411,30.378a91.783,91.783,0,0,0-2.784,9.512c-3.367,14.417-4.557,29.457-6.317,44.091a86.869,86.869,0,0,0-.707,9.674c-.154,17.967,2.54,36.277,6.908,53.669a69.962,69.962,0,0,0,2.867,8.759c4.8,12.11,9.779,24.622,15.431,36.374q1.155,2.4,2.5,4.713a78.853,78.853,0,0,0,5.208,7.689c8.669,11.5,16.949,23.832,27.084,34.2a83.511,83.511,0,0,0,6.9,6.3c11.229,9.168,22.649,18.527,34.735,26.6a108.692,108.692,0,0,0,17.322,9.3c16.366,7.077,32.916,15.336,50.4,19.674,3.879.962,7.8,1.751,11.744,2.4,15.706,2.6,31.575,4.727,47.413,6.346,8.263.844,16.569,1.176,24.872,1.249,16.261.141,32.529-.545,48.784-.891q43.394-.927,86.8-1.2c57-.4,114-.137,171-.049,62.964.1,125.927-.089,188.884-1.089q13.046-.207,26.091-.457a103.088,103.088,0,0,0,52.735-11.789,123.087,123.087,0,0,0,72.353-72.353A103.085,103.085,0,0,0,1220.07,913.17Z" transform="translate(0 -18.27)" fill="#ff9d6e"/>
    <g id="Group_616" data-name="Group 616" transform="translate(401.394 451.324)">
      <path id="Path_934" data-name="Path 934" d="M892.466,477.073c-79.753,0-139.959,46.653-167.951,102.636-74.644-37.323-177.28,9.33-177.28,121.3-66.193,11.106-111.967,74.965-111.967,139.959,0,77.721,63.741,139.959,158.621,139.959h457.2a149.4,149.4,0,0,0,28.866-295.956c10.492-103.322-71-207.9-187.487-207.9Z" transform="translate(-432.986 -474.792)" fill="#fff"/>
      <path id="Path_935" data-name="Path 935" d="M1050.867,982.987h-457.2c-45.7,0-87.046-14.712-116.425-41.428a134.669,134.669,0,0,1-44.477-100.812,150.563,150.563,0,0,1,31.638-91.583c20.7-26.752,49.173-44.556,80.339-50.293.267-26.016,6-49.509,17.055-69.852a123.173,123.173,0,0,1,43.318-45.982,124.443,124.443,0,0,1,118.163-6.581c25.64-49.637,83.1-101.883,168.966-101.883,53.868,0,103.573,22.175,139.959,62.443,36.555,40.455,54.712,93.526,49.994,145.908,69.8,14.7,120.238,76.812,120.238,148.492C1202.438,914.993,1134.443,982.987,1050.867,982.987ZM670.412,569.16a118.24,118.24,0,0,0-104.6,62.038c-10.956,20.165-16.512,43.579-16.512,69.59v1.931l-1.9.319c-30.77,5.163-58.961,22.536-79.379,48.919a145.978,145.978,0,0,0-30.684,88.791,130.157,130.157,0,0,0,42.984,97.437c28.538,25.95,68.794,40.241,113.355,40.241h457.2c81.061,0,147.009-65.948,147.009-147.009,0-70.2-49.87-130.938-118.58-144.427l-2.04-.4.21-2.068c5.257-51.767-12.473-104.415-48.644-144.445-35.509-39.3-84.012-60.941-136.573-60.941h0c-84.954,0-141.406,52.367-165.91,101.375l-1.019,2.04-2.041-1.02A118.237,118.237,0,0,0,670.412,569.16Z" transform="translate(-432.767 -474.573)" fill="#25282a"/>
    </g>
    <g id="Group_618" data-name="Group 618" transform="translate(724.277 444.112)">
      <g id="Group_617" data-name="Group 617">
        <path id="Path_936" data-name="Path 936" d="M1104.851,469.67c-54.991,0-96.5,32.168-115.8,70.769-51.468-25.734-122.237,6.433-122.237,83.636-45.641,7.658-77.2,51.689-77.2,96.5,0,53.59,43.949,96.5,109.37,96.5H1214.22a103.009,103.009,0,0,0,19.9-204.063c7.235-71.241-48.953-143.348-129.273-143.348Z" transform="translate(-786.87 -466.932)" fill="#fff"/>
        <path id="Path_937" data-name="Path 937" d="M1213.958,819.555H898.715c-31.8,0-60.587-10.252-81.059-28.868a94.007,94.007,0,0,1-31.048-70.373,104.984,104.984,0,0,1,22.059-63.86c14.244-18.4,33.761-30.743,55.165-34.931.645-34.649,15.932-63.679,42.165-79.893a87,87,0,0,1,81.571-5.074c18.088-34.232,57.862-69.886,117.02-69.886h0c37.476,0,72.054,15.427,97.365,43.438,25.184,27.871,37.812,64.358,34.857,100.465a105.749,105.749,0,0,1-22.853,208.983ZM951.631,534.217a81.4,81.4,0,0,0-42.755,12.072c-25.161,15.549-39.59,43.806-39.59,77.524v2.316l-2.284.383C846.074,630.023,826.9,641.847,813,659.806a99.483,99.483,0,0,0-20.914,60.508,88.593,88.593,0,0,0,29.257,66.322c19.462,17.7,46.94,27.444,77.375,27.444h315.243a100.272,100.272,0,0,0,19.377-198.64l-2.448-.48.252-2.483c3.592-35.366-8.526-71.341-33.246-98.7-24.261-26.849-57.4-41.635-93.3-41.635h0c-58.045,0-96.615,35.775-113.355,69.256l-1.225,2.448-2.448-1.225A80.37,80.37,0,0,0,951.631,534.217Z" transform="translate(-786.608 -466.67)" fill="#25282a"/>
      </g>
      <rect id="Rectangle_988" data-name="Rectangle 988" width="48.816" height="143.13" transform="translate(124.972 207.017)" fill="#25282a"/>
      <path id="Path_938" data-name="Path 938" d="M974.441,838.729H921.063V691.036h53.378Zm-48.816-4.562h44.253V695.6H925.625Z" transform="translate(-798.371 -486.3)" fill="#25282a"/>
      <rect id="Rectangle_989" data-name="Rectangle 989" width="48.816" height="174.96" transform="translate(190.309 175.187)" fill="#25282a"/>
      <path id="Path_939" data-name="Path 939" d="M1046.042,835.677H992.664V656.154h53.378Zm-48.816-4.563h44.253v-170.4H997.227Z" transform="translate(-804.636 -483.248)" fill="#25282a"/>
      <rect id="Rectangle_990" data-name="Rectangle 990" width="48.816" height="229.344" transform="translate(255.646 120.804)" fill="#25282a"/>
      <path id="Path_940" data-name="Path 940" d="M1117.643,830.463h-53.378V596.556h53.378Zm-48.815-4.562h44.253V601.118h-44.253Z" transform="translate(-810.9 -478.034)" fill="#25282a"/>
      <rect id="Rectangle_991" data-name="Rectangle 991" width="48.816" height="194.316" transform="translate(320.983 155.831)" fill="#25282a"/>
      <path id="Path_941" data-name="Path 941" d="M1189.245,833.821h-53.378V634.942h53.378Zm-48.816-4.562h44.253V639.5h-44.253Z" transform="translate(-817.165 -481.392)" fill="#25282a"/>
      <rect id="Rectangle_992" data-name="Rectangle 992" width="48.816" height="120.496" transform="translate(386.32 229.651)" fill="#25282a"/>
      <path id="Path_942" data-name="Path 942" d="M1260.846,840.9h-53.378V715.84h53.378Zm-48.816-4.562h44.253V720.4H1212.03Z" transform="translate(-823.429 -488.47)" fill="#25282a"/>
      <rect id="Rectangle_993" data-name="Rectangle 993" width="16.185" height="174.96" transform="translate(190.309 175.187)" fill="#fff"/>
      <path id="Path_943" data-name="Path 943" d="M1013.412,835.677H992.664V656.154h20.748Zm-16.185-4.563h11.623v-170.4H997.227Z" transform="translate(-804.636 -483.248)" fill="#25282a"/>
      <rect id="Rectangle_994" data-name="Rectangle 994" width="16.185" height="229.344" transform="translate(255.646 120.804)" fill="#fff"/>
      <path id="Path_944" data-name="Path 944" d="M1085.013,830.463h-20.748V596.556h20.748Zm-16.185-4.562h11.623V601.118h-11.623Z" transform="translate(-810.9 -478.034)" fill="#25282a"/>
      <rect id="Rectangle_995" data-name="Rectangle 995" width="16.185" height="194.316" transform="translate(320.983 155.831)" fill="#fff"/>
      <path id="Path_945" data-name="Path 945" d="M1156.615,833.821h-20.748V634.942h20.748Zm-16.185-4.562h11.623V639.5h-11.623Z" transform="translate(-817.165 -481.392)" fill="#25282a"/>
      <rect id="Rectangle_996" data-name="Rectangle 996" width="16.185" height="120.496" transform="translate(386.32 229.651)" fill="#fff"/>
      <path id="Path_946" data-name="Path 946" d="M1228.216,840.9h-20.748V715.84h20.748Zm-16.185-4.562h11.622V720.4H1212.03Z" transform="translate(-823.429 -488.47)" fill="#25282a"/>
    </g>
    <g id="Group_621" data-name="Group 621" transform="translate(166.788 254.206)">
      <g id="Group_619" data-name="Group 619">
        <path id="Path_947" data-name="Path 947" d="M493.4,261.057c-54.989,0-96.5,32.167-115.8,70.767-51.467-25.734-122.235,6.433-122.235,83.634-45.639,7.658-77.2,51.688-77.2,96.5,0,53.588,43.948,96.5,109.367,96.5H602.77a103.007,103.007,0,0,0,19.9-204.059c7.234-71.24-48.951-143.344-129.271-143.344Z" transform="translate(-175.886 -258.775)" fill="#fff"/>
        <path id="Path_948" data-name="Path 948" d="M602.551,610.521H287.316c-31.686,0-60.364-10.209-80.752-28.748a93.554,93.554,0,0,1-30.9-70.034,104.526,104.526,0,0,1,21.962-63.58c14.256-18.42,33.816-30.733,55.252-34.831.54-34.653,15.763-63.693,41.954-79.881a86.532,86.532,0,0,1,81.532-4.866c17.929-34.228,57.64-70.025,116.816-70.025,37.344,0,71.8,15.373,97.026,43.288,25.192,27.879,37.777,64.407,34.706,100.517a105.29,105.29,0,0,1-22.365,208.161ZM340.23,325.19a81.874,81.874,0,0,0-42.995,12.138c-25.3,15.635-39.805,44.032-39.805,77.911v1.931l-1.9.318c-21.04,3.531-40.32,15.415-54.289,33.464A99.939,99.939,0,0,0,180.23,511.74a89.041,89.041,0,0,0,29.4,66.658c19.546,17.774,47.134,27.561,77.682,27.561H602.551A100.726,100.726,0,0,0,622.016,406.42l-2.04-.4.21-2.069c3.6-35.494-8.555-71.6-33.36-99.047-24.348-26.945-57.6-41.785-93.642-41.785h0c-58.252,0-96.96,35.905-113.76,69.507l-1.02,2.04-2.04-1.02A80.814,80.814,0,0,0,340.23,325.19Z" transform="translate(-175.667 -258.556)" fill="#25282a"/>
      </g>
      <g id="Group_620" data-name="Group 620" transform="translate(189.1 134.399)">
        <path id="Path_949" data-name="Path 949" d="M417.107,481.256h11.412L405.709,446.7,382.9,481.256H395.21a65.231,65.231,0,0,0,64.638,58.157h2.281V517.694h-2.281A43.119,43.119,0,0,1,417.107,481.256Z" transform="translate(-382.898 -409.416)" fill="#25282a"/>
        <path id="Path_950" data-name="Path 950" d="M531.645,464a65.233,65.233,0,0,0-64.638-58.157h-2.281V427.56h2.281A43.118,43.118,0,0,1,509.747,464H498.336l22.811,34.555L543.956,464Z" transform="translate(-390.057 -405.841)" fill="#25282a"/>
      </g>
    </g>
    <g id="Group_625" data-name="Group 625" transform="translate(496.686 208.84)">
      <path id="Path_951" data-name="Path 951" d="M1188.148,236.579l-90.8-25.238-90.8,25.238c-19.038,169.145,90.8,194.773,90.8,194.773S1207.187,405.725,1188.148,236.579Z" transform="translate(-578.066 -209.059)" fill="#fff"/>
      <path id="Path_952" data-name="Path 952" d="M1097.134,433.415a2.321,2.321,0,0,1-.518-.059c-1.15-.268-28.44-6.888-53.705-34.643-14.8-16.255-25.768-36.416-32.608-59.924-8.511-29.253-10.608-63.8-6.232-102.684a2.28,2.28,0,0,1,1.656-1.943l90.8-25.238a2.277,2.277,0,0,1,1.222,0l90.8,25.238a2.281,2.281,0,0,1,1.656,1.943c4.376,38.882,2.28,73.43-6.232,102.684-6.839,23.507-17.809,43.668-32.607,59.924-25.267,27.756-52.557,34.375-53.707,34.643A2.313,2.313,0,0,1,1097.134,433.415Zm-88.7-195.27c-4.074,37.567-1.993,70.927,6.19,99.172,6.61,22.817,17.2,42.371,31.47,58.117,19.1,21.073,41.406,30.924,51.038,33.352,9.63-2.427,31.94-12.279,51.039-33.352,14.272-15.746,24.859-35.3,31.47-58.117,8.183-28.246,10.265-61.605,6.19-99.172l-88.7-24.655Z" transform="translate(-577.848 -208.84)" fill="#25282a"/>
      <path id="Path_953" data-name="Path 953" d="M1108.87,405.762s82.679-19.291,68.348-146.617l-68.348-19Z" transform="translate(-587.211 -211.58)" fill="#d1d3d4"/>
      <path id="Path_954" data-name="Path 954" d="M1115.879,373.983l33.095-93.1h-40.655v20.07h12.219l-18.8,52.886-18.8-52.886h12.219v-20.07h-40.654l33.093,93.1Z" transform="translate(-582.455 -215.143)" fill="#ff9d6e"/>
      <path id="Path_955" data-name="Path 955" d="M1117.179,376.046h-31.5l-34.715-97.668h46.168v24.633h-11.27l15.565,43.793L1117,303.011h-11.269V278.378H1151.9Zm-28.277-4.563h25.057l31.472-88.543h-35.141v15.508h13.17l-22.031,61.979L1079.4,298.449h13.17V282.94h-35.142Z" transform="translate(-582.145 -214.924)" fill="#25282a"/>
      <path id="Path_956" data-name="Path 956" d="M581.5,1269.923V1316H711.115s4.557-11.138-26.328-20.252-55.187-21.264-57.212-25.821Z" transform="translate(-541.071 -301.676)" fill="#fff"/>
      <path id="Path_957" data-name="Path 957" d="M712.427,1318.059H579v-50.636h49.838l.6,1.355c1.548,3.313,23.9,15.154,55.773,24.56,14.88,4.391,24,9.9,27.109,16.369,1.848,3.848.809,6.63.684,6.935ZM583.564,1313.5H708.8a6.749,6.749,0,0,0-.721-2.078c-1.522-2.906-6.685-8.549-24.155-13.7-27.067-7.987-52.208-19.285-57.747-25.729H583.564Z" transform="translate(-540.853 -301.457)" fill="#25282a"/>
      <rect id="Rectangle_997" data-name="Rectangle 997" width="129.613" height="12.617" transform="translate(170.043 1026.938) rotate(-180)" fill="#25282a"/>
      <path id="Path_958" data-name="Path 958" d="M713.177,1335.094H579v-17.18H713.177Zm-129.614-4.563H708.615v-8.055H583.564Z" transform="translate(-540.853 -305.874)" fill="#25282a"/>
      <path id="Path_959" data-name="Path 959" d="M854.5,1260.507l2.989,45.977,129.34-8.408s3.825-11.411-27.586-18.5-56.45-17.64-58.766-22.055Z" transform="translate(-564.956 -300.591)" fill="#fff"/>
      <path id="Path_960" data-name="Path 960" d="M855.128,1308.681l-3.284-50.529,49.732-3.233.689,1.313c.435.793,4.4,3.957,17.366,8.992a291.268,291.268,0,0,0,39.883,11.9c15.134,3.416,24.593,8.32,28.114,14.575,2.093,3.721,1.236,6.565,1.132,6.877l-.486,1.452Zm1.564-46.272,2.693,41.423,124.972-8.124a6.812,6.812,0,0,0-.855-2.028c-1.708-2.8-7.225-8.1-24.993-12.107-27.529-6.214-53.35-15.857-59.295-21.927Z" transform="translate(-564.724 -300.363)" fill="#25282a"/>
      <rect id="Rectangle_998" data-name="Rectangle 998" width="129.613" height="12.617" transform="translate(422.692 1010.076) rotate(176.281)" fill="#25282a"/>
      <path id="Path_961" data-name="Path 961" d="M856.233,1325.156l-1.114-17.143,133.893-8.7,1.114,17.143Zm3.735-12.887.522,8.037,124.788-8.112-.523-8.038Z" transform="translate(-565.01 -304.247)" fill="#25282a"/>
      <path id="Path_962" data-name="Path 962" d="M677.565,502.642S585.136,558.586,553.65,791.686s0,420.7,0,420.7l111.483-5.235s46.619-249.183,40.4-500.932c0,0,12.432,225.833,90.132,495.7l105.672-6.747s4.107-467.9-115.517-692.525Z" transform="translate(-537.41 -234.545)" fill="#fff"/>
      <path id="Path_963" data-name="Path 963" d="M553.434,1214.445a2.281,2.281,0,0,1-2.248-1.9c-.079-.47-7.938-47.9-11.835-123.195-3.6-69.472-4.464-177.6,11.824-298.184,16.318-120.816,49.3-193.3,74.092-232.841,27.02-43.087,49.94-57.266,50.9-57.849a2.276,2.276,0,0,1,1.182-.33H785.608a2.281,2.281,0,0,1,2.013,1.209c27.384,51.422,50.509,119.908,68.732,203.559C870.915,771.754,882.4,848.395,890.5,932.7c13.779,143.511,12.92,261.094,12.91,262.265a2.281,2.281,0,0,1-2.136,2.257L795.6,1203.972a2.28,2.28,0,0,1-2.338-1.645c-40.174-139.53-62.562-267-74.27-349.358-4.924-34.636-8.422-64.417-10.863-87.93-1.4,228.041-40.538,440.015-40.968,442.312a2.28,2.28,0,0,1-2.135,1.859l-111.483,5.234ZM678.023,504.7c-3.529,2.355-24.844,17.571-49.132,56.425-24.465,39.138-57.025,110.923-73.2,230.643-16.236,120.2-15.376,227.995-11.794,297.254,3.434,66.405,9.953,111.031,11.465,120.762L663,1204.735c4.131-22.875,45.908-261.116,40.042-498.681a2.282,2.282,0,0,1,4.559-.182c.031.564,3.253,57.438,15.918,146.517,11.638,81.857,33.846,208.349,73.622,346.912l101.715-6.494c.047-16.513-.16-127-12.9-259.714-8.078-84.12-19.537-160.574-34.06-227.236C833.9,623.282,811.141,555.615,784.236,504.7Z" transform="translate(-537.195 -234.327)" fill="#25282a"/>
      <g id="Group_622" data-name="Group 622" transform="translate(207.279 268.096)">
        <path id="Path_964" data-name="Path 964" d="M803.718,502.642h-39.37C868.172,697.6,871.188,1094.22,870.173,1196.156l49.062-3.133S923.343,727.27,803.718,502.642Z" transform="translate(-764.348 -502.642)" fill="#d1d3d4"/>
      </g>
      <g id="Group_623" data-name="Group 623" transform="translate(92.098 376.159)">
        <path id="Path_965" data-name="Path 965" d="M701.216,621.065c5.8,234.81-54.9,553.776-63.093,595.917l33.919-1.573S718.577,962.257,713.908,714.2C705.588,647.887,701.216,621.065,701.216,621.065Z" transform="translate(-638.123 -621.065)" fill="#d1d3d4"/>
      </g>
      <path id="Path_966" data-name="Path 966" d="M763.635,292.06s-6.9,29.316,13.375,41.87,31.4,20.353,31.4,20.353-83.156,11.63-126.769-31.111c0,0,36.054,2.229,44.2-10.08s7.092-23.939,7.092-23.939Z" transform="translate(-549.833 -215.867)" fill="#fff"/>
      <path id="Path_967" data-name="Path 967" d="M782.117,357.757c-6.456,0-13.765-.254-21.519-.973-24.31-2.256-58.118-9.678-81.126-32.225l-4.369-4.282,6.106.376c9.666.6,36.076.125,42.152-9.061,7.612-11.509,6.733-22.367,6.723-22.475l-.246-2.735,36.044,3.412-.6,2.546a54.706,54.706,0,0,0-.852,15.622c1.029,10.994,5.472,19,13.207,23.786,20.094,12.443,31.4,20.345,31.51,20.424l4.745,3.325-5.738.8A211.012,211.012,0,0,1,782.117,357.757ZM687.176,325.4c36.145,30.555,95.143,28.571,114.206,27.006-5.147-3.448-14.036-9.282-26.145-16.78-8.921-5.524-14.232-14.991-15.359-27.374a60.156,60.156,0,0,1,.488-14.4l-25.7-2.434a44.537,44.537,0,0,1-7.5,22.687C720.436,324.287,698.345,325.493,687.176,325.4Z" transform="translate(-549.261 -215.625)" fill="#25282a"/>
      <path id="Path_968" data-name="Path 968" d="M871.97,370.784s66.4,32.862,173.024-38.764c0,0-.321-11.105,14.07-21.481s22.76-17.069,22.76-17.069l3.347,4.017-13.054,11.253,18.408,9.225s-14.543,19.951-31.053,23.325c-11.108,2.269-14.608,6.242-21.493,12.418-5.238,4.7-26.531,22.716-31.929,27.226-23.558,19.681-71.228,52.13-163.47,36.021Z" transform="translate(-563.914 -216.245)" fill="#fff"/>
      <path id="Path_969" data-name="Path 969" d="M889.785,423.342a278.261,278.261,0,0,1-47.816-4.36,2.281,2.281,0,0,1-1.532-3.472l29.39-46.17a2.281,2.281,0,0,1,2.934-.821h0c.163.08,16.681,8.021,45.808,7.235,48.3-1.3,93.925-25.155,124-45.218.361-3.476,2.51-13.1,14.946-22.065,14.171-10.216,22.585-16.934,22.668-17a2.281,2.281,0,0,1,3.177.321l3.347,4.016a2.282,2.282,0,0,1-.263,3.189l-10.461,9.018,15.348,7.692a2.281,2.281,0,0,1,.821,3.384c-.615.844-15.262,20.706-32.439,24.215-9.474,1.936-12.907,5.055-18.6,10.224-.588.535-1.2,1.087-1.832,1.658-5.28,4.735-26.438,22.641-31.989,27.278a166.721,166.721,0,0,1-56.738,31.851C932.011,420.33,911.681,423.342,889.785,423.342Zm-43.653-8.284c96.214,15.724,142.806-23.2,158.237-36.1,5.365-4.483,26.724-22.56,31.867-27.174.629-.564,1.23-1.11,1.811-1.637,5.834-5.3,10.049-9.13,20.75-11.317,12.326-2.519,23.8-15.2,27.987-20.3l-15.908-7.972a2.281,2.281,0,0,1-.467-3.768L1081.763,297l-.49-.589c-3.185,2.486-10.567,8.166-21.094,15.755-13.105,9.448-13.128,19.174-13.124,19.582a2.309,2.309,0,0,1-1.008,1.942c-30.651,20.592-77.689,45.4-127.71,46.629-24.775.614-40.5-4.759-45.711-6.884Z" transform="translate(-563.695 -216.026)" fill="#25282a"/>
      <path id="Path_970" data-name="Path 970" d="M642.873,608.574l-21.631,19.239S606.383,608.1,607.956,591.32c1.058-11.289-1.725-15.793-5.631-24.176-2.972-6.377-14.02-31.99-16.765-38.466-11.98-28.263-29.166-83.308,13.071-166.881l35.628,41.546s-50.752,53.977-13.225,176.819c0,0,12.434,3.739,21.839,28.412" transform="translate(-540.217 -222.223)" fill="#fff"/>
      <path id="Path_971" data-name="Path 971" d="M621.024,629.876c-.075,0-.15,0-.226-.011a2.278,2.278,0,0,1-1.6-.9c-.629-.834-15.373-20.624-13.736-38.079.9-9.627-1.084-13.819-4.375-20.764-.34-.718-.692-1.46-1.053-2.236-3-6.43-13.975-31.88-16.8-38.539A166.737,166.737,0,0,1,569.265,465.8c-.612-33.033,8.509-68.446,27.111-105.253a2.282,2.282,0,0,1,3.768-.456l35.629,41.547a2.28,2.28,0,0,1-.07,3.047c-.122.131-12.519,13.623-20.24,41.724-12.809,46.612-3.237,97.223,7.221,131.83,3.534,1.627,14,8.04,22.1,29.3a2.283,2.283,0,0,1-.615,2.518L622.54,629.3A2.282,2.282,0,0,1,621.024,629.876Zm-22.1-264.2C555.9,453.16,579.595,509.056,587.442,527.569c2.728,6.438,13.813,32.128,16.732,38.393.357.767.7,1.5,1.041,2.209,3.375,7.123,5.813,12.27,4.793,23.143-1.191,12.7,7.829,27.541,11.413,32.873l18.53-16.482c-8.714-21.783-19.7-25.548-19.814-25.584a2.322,2.322,0,0,1-1.5-1.512c-10.789-35.314-20.843-87.533-7.477-135.75,6.621-23.883,16.333-37.372,19.879-41.734Z" transform="translate(-539.998 -222.004)" fill="#25282a"/>
      <g id="Group_624" data-name="Group 624" transform="translate(33.641 139.574)">
        <path id="Path_972" data-name="Path 972" d="M613.419,376.676,600.66,361.8c-42.236,83.573-24.415,138.618-12.436,166.881l.435,1.025C579.874,499.923,571.622,448,613.419,376.676Z" transform="translate(-574.062 -361.797)" fill="#d1d3d4"/>
      </g>
      <path id="Path_973" data-name="Path 973" d="M992.5,390.977c-23.928,12.5-68.182,30.665-137.465,10.8l-14.212,20.315c95.959,16.959,141.52-16.855,165.078-36.536,1.163-.972,3.068-2.574,5.389-4.532C1003.5,385.179,995.646,389.332,992.5,390.977Z" transform="translate(-563.759 -223.905)" fill="#d1d3d4"/>
      <path id="Path_974" data-name="Path 974" d="M689.113,321.362s39.1,34.886,110.673,26.465c54.735,1.311,57.232,25.466,57.232,25.466l-36.6,45.577,4.63,114.213s-104.657,9.022-190.068-28.871l4.812-97.44-50.525-46.916S628.779,295.941,689.113,321.362Z" transform="translate(-541.751 -218.162)" fill="#fff"/>
      <path id="Path_975" data-name="Path 975" d="M797.012,536.037c-37.182,0-104.925-4.108-163.177-29.952a2.281,2.281,0,0,1-1.353-2.2l4.76-96.378-49.746-46.193a2.281,2.281,0,0,1-.388-2.871A117.039,117.039,0,0,1,615,329.025c23.476-17.251,49.336-20.7,74.784-9.978a2.277,2.277,0,0,1,.633.4c.166.147,9.9,8.667,28.049,16.066,16.8,6.848,44.458,14.114,80.839,9.835a2.233,2.233,0,0,1,.321-.015c56.1,1.344,59.336,26.445,59.446,27.513a2.284,2.284,0,0,1-.491,1.663l-36.064,44.91,4.6,113.359a2.281,2.281,0,0,1-2.083,2.365C824.693,535.172,814.063,536.036,797.012,536.037Zm-159.9-33.493c76.9,33.555,170.019,29.2,185.343,28.208l-4.541-112a2.28,2.28,0,0,1,.5-1.52l35.929-44.742c-.472-1.725-2.106-5.884-7.489-10.212-6.564-5.277-20.076-11.7-47.188-12.376-37.383,4.368-65.843-3.16-83.149-10.248-17.29-7.083-27.027-14.986-28.848-16.538-24.114-10.041-47.656-6.815-69.979,9.59a115.934,115.934,0,0,0-25.68,26.587l49.107,45.6a2.279,2.279,0,0,1,.726,1.785Z" transform="translate(-541.532 -217.948)" fill="#25282a"/>
      <path id="Path_976" data-name="Path 976" d="M784.708,260c-.615-4.711-4.656-7.581-5.411-12.365-.7-4.453-.53-8.487-2.446-12.7-3.361-7.383-9.248-13-17.253-14.879-2.768-.545-4.4-.851-7.144.349a44.89,44.89,0,0,0-9.363,6.145,73.02,73.02,0,0,0-15.416,16.661c-4.1,6.106-8.523,13.7-8.3,21.292.242,8.123,4.994,15.289,9.631,21.622,4.922,6.723,9.858,9.6,18.064,11.154,7.471,1.418,15.483,1.487,22.287-2.356,6.061-3.423,9.756-9.883,11.3-16.514.732-3.142.225-6.881,1.5-9.788C783.512,265.535,785.178,263.6,784.708,260Z" transform="translate(-553.134 -209.78)" fill="#fff"/>
      <path id="Path_977" data-name="Path 977" d="M755.671,300.249a49.653,49.653,0,0,1-9.241-.939c-9.023-1.712-14.3-4.978-19.478-12.048-4.735-6.467-9.809-14.1-10.071-22.9-.245-8.187,4.252-16.036,8.683-22.633a75.159,75.159,0,0,1,15.9-17.182,46.145,46.145,0,0,1,9.862-6.443c3.422-1.495,5.662-1.054,8.5-.5,8.353,1.964,15.033,7.7,18.889,16.173a29.475,29.475,0,0,1,2.179,9.663c.123,1.182.251,2.4.443,3.621a14.634,14.634,0,0,0,2.406,5.3,17.732,17.732,0,0,1,3.014,7.123h0c.452,3.46-.7,5.741-1.814,7.948-.3.6-.62,1.228-.909,1.888a15.437,15.437,0,0,0-.826,4.949,27.613,27.613,0,0,1-.538,4.442c-1.872,8.035-6.392,14.589-12.4,17.983A29.059,29.059,0,0,1,755.671,300.249Zm.188-78.606a6.454,6.454,0,0,0-2.71.641,42.536,42.536,0,0,0-8.864,5.846,70.606,70.606,0,0,0-14.933,16.14c-4.028,6-8.117,13.056-7.911,19.953.224,7.492,4.862,14.429,9.192,20.343,4.458,6.088,8.814,8.774,16.648,10.26,8.572,1.626,15.357.939,20.74-2.1,4.9-2.767,8.619-8.251,10.2-15.045a23.732,23.732,0,0,0,.429-3.707,18.97,18.97,0,0,1,1.2-6.478c.339-.776.683-1.456,1.016-2.115.983-1.947,1.633-3.234,1.362-5.3h0a13.566,13.566,0,0,0-2.367-5.307,18.642,18.642,0,0,1-3.035-7c-.211-1.336-.345-2.619-.474-3.859a25.147,25.147,0,0,0-1.794-8.247c-3.258-7.158-8.834-11.989-15.7-13.6A16.2,16.2,0,0,0,755.859,221.643Z" transform="translate(-552.915 -209.562)" fill="#25282a"/>
      <path id="Path_978" data-name="Path 978" d="M728.6,293.2c-5.841,5.391-13.157,9.3-17.828,15.729-6.834,9.413-6.562,22.051-5.9,33.664s1.193,24.177-5.286,33.838c-6.67,9.944-19.609,14.3-31.548,13.375s-23.062-6.342-33.314-12.531c-9.785-5.907-19.19-12.7-26.578-21.423s-12.669-19.55-13.265-30.964c-.389-7.452,1.207-14.878,3.433-22a49.12,49.12,0,0,1,5.478-12.469,43.8,43.8,0,0,1,9.072-9.633c19.2-15.7,45.638-21.965,61.809-40.772,2.252-2.619,4.266-5.445,6.649-7.945,7.362-7.722,17.345-11.219,27.3-15.058a51.714,51.714,0,0,1,25.5-2.977c4.41.6,10.63,1.282,13.648,2.308,1.575.535,10.576,3.454,12.2,6.391-4.4-.191-15.993,9.613-18.425,13.287s-3.31,8.186-3.4,12.591c-4.8-2.166-10.877-2.908-15.006.36-2.994,2.37-4.062,6.407-3.555,10.079a13.242,13.242,0,0,0,6.845,9.723c2.675,1.591,5.572,2.266,8.412,3.406,2.15.862,2.044,4.307,1.888,6.256C736.273,284.151,732.71,289.409,728.6,293.2Z" transform="translate(-542.237 -209.254)" fill="#25282a"/>
      <rect id="Rectangle_999" data-name="Rectangle 999" width="16.185" height="143.13" transform="translate(352.564 442.289)" fill="#fff"/>
      <path id="Path_979" data-name="Path 979" d="M941.811,838.729H921.063V691.036h20.748Zm-16.185-4.562h11.622V695.6H925.625Z" transform="translate(-570.78 -251.028)" fill="#25282a"/>
    </g>
  </g>
</svg>
